ply
format ascii 1.0
comment Created by Blender 2.59 (sub 0) - www.blender.org, source file: 'Tetris.blend'
element vertex 130
property float x
property float y
property float z
property float nx
property float ny
property float nz
property float s
property float t
element face 90
property list uchar uint vertex_indices
end_header
0.359175 -0.500000 -0.359175 0.193426 -0.961852 -0.193426 0.715756 0.469222 
0.359175 -0.500000 0.359175 0.193426 -0.961852 0.193426 0.913969 0.470014 
-0.359175 -0.500000 0.359175 -0.193426 -0.961852 0.193426 0.914629 0.189357 
-0.359175 -0.500000 -0.359175 -0.193426 -0.961852 -0.193426 0.716417 0.188565 
0.359175 0.500000 -0.359175 0.193426 0.961852 -0.193426 0.279558 0.486211 
-0.359175 0.500000 -0.359175 -0.193426 0.961852 -0.193426 0.064160 0.485350 
-0.359175 0.500000 0.359175 -0.193426 0.961852 0.193426 0.063693 0.683805 
0.359175 0.500000 0.359175 0.193426 0.961852 0.193426 0.279091 0.684666 
0.500000 -0.359175 -0.359175 0.961852 -0.193426 -0.193426 0.621554 0.470048 
0.500000 0.359175 -0.359175 0.961852 0.193426 -0.193426 0.622215 0.189390 
0.500000 0.359175 0.359175 0.961852 0.193426 0.193426 0.406817 0.188529 
0.500000 -0.359175 0.359175 0.961852 -0.193426 0.193426 0.406156 0.469187 
0.359175 -0.359175 0.500000 0.193426 -0.193426 0.961852 0.278440 0.960930 
0.359175 0.359175 0.500000 0.193426 0.193426 0.961852 0.278908 0.762475 
-0.359175 0.359175 0.500000 -0.193426 0.193426 0.961852 0.063510 0.761614 
-0.359175 -0.359175 0.500000 -0.193426 -0.193426 0.961852 0.063042 0.960069 
-0.500000 -0.359175 0.359175 -0.961852 -0.193426 0.193426 0.621554 0.917189 
-0.500000 0.359175 0.359175 -0.961852 0.193426 0.193426 0.622215 0.636531 
-0.500000 0.359175 -0.359175 -0.961852 0.193426 -0.193426 0.406817 0.635670 
-0.500000 -0.359175 -0.359175 -0.961852 -0.193426 -0.193426 0.406156 0.916328 
0.359175 0.359175 -0.500000 0.193426 0.193426 -0.961852 0.228859 0.082778 
0.359175 -0.359175 -0.500000 0.193426 -0.193426 -0.961852 0.030646 0.081986 
-0.359175 -0.359175 -0.500000 -0.193426 -0.193426 -0.961852 0.029985 0.362643 
-0.359175 0.359175 -0.500000 -0.193426 0.193426 -0.961852 0.228198 0.363435 
0.471132 -0.428868 0.359175 0.823267 -0.539598 0.176122 0.406092 0.496415 
0.428867 -0.471133 0.359175 0.539598 -0.823267 0.176122 0.406053 0.512928 
0.428867 -0.471132 -0.359175 0.539598 -0.823267 -0.176122 0.621451 0.513789 
0.471132 -0.428867 -0.359175 0.823267 -0.539598 -0.176122 0.621490 0.497276 
0.359175 -0.471133 0.428867 0.176122 -0.823267 0.539598 0.936587 0.470105 
0.359175 -0.428868 0.471132 0.176122 -0.539598 0.823267 0.953209 0.470171 
-0.359175 -0.428868 0.471132 -0.176122 -0.539598 0.823267 0.953870 0.189514 
-0.359175 -0.471133 0.428867 -0.176122 -0.823267 0.539598 0.937247 0.189448 
-0.359175 -0.471132 -0.428868 -0.176122 -0.823267 -0.539598 0.736657 0.881264 
-0.359175 -0.428867 -0.471133 -0.176122 -0.539598 -0.823267 0.754579 0.881290 
0.359175 -0.428867 -0.471132 0.176122 -0.539598 -0.823267 0.754801 0.616270 
0.359175 -0.471132 -0.428868 0.176122 -0.823267 -0.539598 0.736878 0.616244 
-0.428868 -0.471133 0.359175 -0.539598 -0.823267 0.176122 0.621451 0.960930 
-0.471133 -0.428868 0.359175 -0.823267 -0.539598 0.176122 0.621490 0.944417 
-0.471132 -0.428867 -0.359175 -0.823267 -0.539598 -0.176122 0.406092 0.943556 
-0.428867 -0.471132 -0.359175 -0.539598 -0.823267 -0.176122 0.406053 0.960069 
0.359175 0.471133 -0.428867 0.176122 0.823267 -0.539598 0.268099 0.082935 
0.359175 0.428868 -0.471132 0.176122 0.539598 -0.823267 0.251477 0.082868 
-0.359175 0.428868 -0.471132 -0.176122 0.539598 -0.823267 0.250816 0.363526 
-0.359175 0.471133 -0.428867 -0.176122 0.823267 -0.539598 0.267438 0.363592 
-0.471133 0.428867 0.359175 -0.823267 0.539598 0.176122 0.622279 0.609303 
-0.428868 0.471132 0.359175 -0.539598 0.823267 0.176122 0.622318 0.592790 
-0.428867 0.471133 -0.359175 -0.539598 0.823267 -0.176122 0.406920 0.591929 
-0.471132 0.428868 -0.359175 -0.823267 0.539598 -0.176122 0.406881 0.608442 
0.471133 0.428868 -0.359175 0.823267 0.539598 -0.176122 0.622279 0.162162 
0.428868 0.471132 -0.359175 0.539598 0.823267 -0.176122 0.622318 0.145649 
0.428867 0.471132 0.359175 0.539598 0.823267 0.176122 0.406920 0.144788 
0.471132 0.428867 0.359175 0.823267 0.539598 0.176122 0.406881 0.161301 
0.359175 0.428867 0.471133 0.176122 0.539598 0.823267 0.278972 0.735247 
0.359175 0.471132 0.428868 0.176122 0.823267 0.539598 0.279027 0.711894 
-0.359175 0.471132 0.428867 -0.176122 0.823267 0.539598 0.063629 0.711033 
-0.359175 0.428867 0.471132 -0.176122 0.539598 0.823267 0.063574 0.734386 
0.471133 -0.359175 -0.428867 0.823267 -0.176122 -0.539598 0.642451 0.470131 
0.428868 -0.359175 -0.471132 0.539598 -0.176122 -0.823267 0.655125 0.470182 
0.428868 0.359175 -0.471132 0.539598 0.176122 -0.823267 0.655785 0.189525 
0.471133 0.359175 -0.428867 0.823267 0.176122 -0.539598 0.643112 0.189474 
0.428867 -0.359175 0.471132 0.539598 -0.176122 0.823267 0.372586 0.469053 
0.471132 -0.359175 0.428867 0.823267 -0.176122 0.539598 0.385259 0.469103 
0.471132 0.359175 0.428868 0.823267 0.176122 0.539598 0.385919 0.188446 
0.428867 0.359175 0.471133 0.539598 0.176122 0.823267 0.373246 0.188395 
-0.471133 -0.359175 0.428867 -0.823267 -0.176122 0.539598 0.642452 0.917272 
-0.428868 -0.359175 0.471132 -0.539598 -0.176122 0.823267 0.655125 0.917323 
-0.428868 0.359175 0.471132 -0.539598 0.176122 0.823267 0.655785 0.636666 
-0.471133 0.359175 0.428867 -0.823267 0.176122 0.539598 0.643112 0.636615 
-0.428867 -0.359175 -0.471133 -0.539598 -0.176122 -0.823267 0.372586 0.916194 
-0.471132 -0.359175 -0.428868 -0.823267 -0.176122 -0.539598 0.385259 0.916244 
-0.471132 0.359175 -0.428867 -0.823267 0.176122 -0.539598 0.385920 0.635587 
-0.428867 0.359175 -0.471132 -0.539598 0.176122 -0.823267 0.373246 0.635536 
0.428867 -0.471132 -0.359175 0.539598 -0.823267 -0.176122 0.719080 0.496464 
0.428867 -0.471133 0.359175 0.539598 -0.823267 0.176122 0.917292 0.497257 
0.359175 -0.500000 -0.359175 0.193426 -0.961852 -0.193426 0.715978 0.619927 
-0.359175 -0.500000 -0.359175 -0.193426 -0.961852 -0.193426 0.715756 0.884947 
-0.428867 -0.471132 -0.359175 -0.539598 -0.823267 -0.176122 0.719869 0.161350 
-0.428868 -0.471133 0.359175 -0.539598 -0.823267 0.176122 0.918082 0.162142 
0.428867 0.471132 0.359175 0.539598 0.823267 0.176122 0.299969 0.692724 
0.428868 0.471132 -0.359175 0.539598 0.823267 -0.176122 0.300437 0.494270 
-0.428868 0.471132 0.359175 -0.539598 0.823267 0.176122 0.042777 0.691696 
-0.428867 0.471133 -0.359175 -0.539598 0.823267 -0.176122 0.043244 0.493241 
-0.359175 0.500000 -0.359175 -0.193426 0.961852 -0.193426 0.283583 0.363657 
0.359175 0.500000 -0.359175 0.193426 0.961852 -0.193426 0.284244 0.082999 
-0.428868 -0.359175 0.471132 -0.539598 -0.176122 0.823267 0.042164 0.952011 
-0.428868 0.359175 0.471132 -0.539598 0.176122 0.823267 0.042631 0.753556 
-0.359175 -0.359175 0.500000 -0.193426 -0.193426 0.961852 0.970015 0.189579 
0.359175 -0.359175 0.500000 0.193426 -0.193426 0.961852 0.969354 0.470236 
0.428867 0.359175 0.471133 0.539598 0.176122 0.823267 0.299824 0.754584 
0.428867 -0.359175 0.471132 0.539598 -0.176122 0.823267 0.299356 0.953039 
-0.428867 0.359175 -0.471132 -0.539598 0.176122 -0.823267 0.231522 0.390678 
-0.428867 -0.359175 -0.471133 -0.539598 -0.176122 -0.823267 0.033309 0.389885 
-0.359175 -0.359175 -0.500000 -0.193426 -0.193426 -0.961852 0.775474 0.885032 
0.359175 -0.359175 -0.500000 0.193426 -0.193426 -0.961852 0.775695 0.620012 
0.428868 -0.359175 -0.471132 0.539598 -0.176122 -0.823267 0.034098 0.054771 
0.428868 0.359175 -0.471132 0.539598 0.176122 -0.823267 0.232311 0.055563 
0.433333 -0.433333 -0.433333 0.577349 -0.577349 -0.577349 0.643722 0.499110 
0.471132 -0.428868 0.359175 0.823267 -0.539598 0.176122 0.922214 0.513789 
0.433333 -0.433333 0.433333 0.577349 -0.577349 0.577349 0.942187 0.499101 
-0.433333 -0.433333 0.433333 -0.577349 -0.577349 0.577349 0.942984 0.160497 
0.433333 -0.433333 -0.433333 0.577349 -0.577349 -0.577349 0.745860 0.591929 
-0.433333 -0.433333 -0.433334 -0.577349 -0.577349 -0.577349 0.745592 0.911667 
-0.471132 -0.428867 -0.359175 -0.823267 -0.539598 -0.176122 0.730798 0.932741 
-0.428867 -0.471132 -0.359175 -0.539598 -0.823267 -0.176122 0.721853 0.913292 
-0.471133 -0.428868 0.359175 -0.823267 -0.539598 0.176122 0.923081 0.145649 
-0.433333 0.433333 -0.433333 -0.577349 0.577349 -0.577349 0.256416 0.392522 
0.433334 0.433333 -0.433333 0.577349 0.577349 -0.577349 0.257214 0.053918 
-0.433333 0.433333 -0.433333 -0.577349 0.577349 -0.577349 0.384649 0.606608 
-0.471133 0.428867 0.359175 -0.823267 0.539598 0.176122 0.030076 0.703322 
-0.433333 0.433333 0.433333 -0.577349 0.577349 0.577349 0.041365 0.722621 
0.433333 0.433333 0.433334 0.577349 0.577349 0.577349 0.301236 0.723659 
0.471132 0.428867 0.359175 0.823267 0.539598 0.176122 0.312615 0.704451 
0.433334 0.433333 -0.433333 0.577349 0.577349 -0.577349 0.644520 0.160506 
0.471133 0.359175 -0.428867 0.823267 0.176122 -0.539598 0.237310 0.039070 
0.471132 0.359175 0.428868 0.823267 0.176122 0.539598 0.312524 0.742958 
0.433333 -0.433333 0.433333 0.577349 -0.577349 0.577349 0.383851 0.498071 
-0.471133 0.359175 0.428867 -0.823267 0.176122 0.539598 0.029985 0.741829 
-0.433333 -0.433333 0.433333 -0.577349 -0.577349 0.577349 0.643722 0.946251 
-0.471132 0.359175 -0.428867 -0.823267 0.176122 -0.539598 0.236443 0.407210 
-0.428867 -0.359175 -0.471133 -0.539598 -0.176122 -0.823267 0.769329 0.913359 
-0.471132 -0.359175 -0.428868 -0.823267 -0.176122 -0.539598 0.760351 0.932783 
0.428867 -0.471132 -0.359175 0.539598 -0.823267 -0.176122 0.722118 0.596849 
0.428868 0.471132 -0.359175 0.539598 0.823267 -0.176122 0.276343 0.055739 
-0.428867 0.471133 -0.359175 -0.539598 0.823267 -0.176122 0.275554 0.390854 
0.433333 0.433333 0.433334 0.577349 0.577349 0.577349 0.384649 0.159467 
0.428867 -0.359175 0.471132 0.539598 -0.176122 0.823267 0.961325 0.497433 
-0.428868 -0.359175 0.471132 -0.539598 -0.176122 0.823267 0.962114 0.162318 
-0.433333 0.433333 0.433333 -0.577349 0.577349 0.577349 0.644520 0.607647 
-0.433333 -0.433333 -0.433334 -0.577349 -0.577349 -0.577349 0.383851 0.945212 
0.428868 -0.359175 -0.471132 0.539598 -0.176122 -0.823267 0.769594 0.596916 
4 0 1 2 3
4 4 5 6 7
4 8 9 10 11
4 12 13 14 15
4 16 17 18 19
4 20 21 22 23
4 24 25 26 27
4 28 29 30 31
4 32 33 34 35
4 36 37 38 39
4 40 41 42 43
4 44 45 46 47
4 48 49 50 51
4 52 53 54 55
4 56 57 58 59
4 60 61 62 63
4 64 65 66 67
4 68 69 70 71
4 0 72 73 1
4 31 2 1 28
4 35 74 75 32
4 76 3 2 77
4 53 7 6 54
4 7 78 79 4
4 80 6 5 81
4 43 82 83 40
4 61 11 10 62
4 11 24 27 8
4 51 10 9 48
4 59 9 8 56
4 84 15 14 85
4 86 30 29 87
4 55 14 13 52
4 88 13 12 89
4 69 19 18 70
4 19 38 37 16
4 47 18 17 44
4 67 17 16 64
4 90 23 22 91
4 23 42 41 20
4 33 92 93 34
4 94 21 20 95
3 96 27 26
3 97 98 73
3 30 99 31
3 98 29 28
3 34 100 35
3 101 33 32
3 102 101 103
3 99 104 77
3 42 105 43
3 106 41 40
3 107 47 46
3 108 109 80
3 110 111 78
3 48 112 49
3 109 55 54
3 52 110 53
3 95 106 113
3 96 57 56
3 110 88 114
3 60 115 61
3 109 116 85
3 64 117 65
3 105 90 118
3 119 101 120
4 74 35 100 121
4 73 98 28 1
4 31 99 77 2
4 75 103 101 32
4 83 122 106 40
4 43 105 123 82
4 80 109 54 6
4 7 53 110 78
4 27 96 56 8
4 9 59 112 48
4 51 124 62 10
4 11 61 115 24
4 29 98 125 87
4 13 88 110 52
4 55 109 85 14
4 86 126 99 30
4 37 117 64 16
4 17 67 127 44
4 47 107 70 18
4 19 69 128 38
4 41 106 95 20
4 93 129 100 34
4 33 101 119 92
4 23 90 105 42
